<?xml version="1.0" standalone="no"?><!DOCTYPE svg PUBLIC "-//W3C//DTD SVG 1.1//EN" "http://www.w3.org/Graphics/SVG/1.1/DTD/svg11.dtd"><svg t="1733275932104" class="icon" viewBox="0 0 1024 1024" version="1.1" xmlns="http://www.w3.org/2000/svg" p-id="3426" data-spm-anchor-id="a313x.search_index.0.i0.4aba3a81yPLv0y" xmlns:xlink="http://www.w3.org/1999/xlink" width="24" height="24"><path d="M352 128v768h-64V128H192v768h640V128H352z m-192-64h704c9.344 0 17.024 3.008 23.04 8.96 5.952 6.016 8.96 13.696 8.96 23.04v832a31.168 31.168 0 0 1-8.96 23.04 31.168 31.168 0 0 1-23.04 8.96h-704a31.168 31.168 0 0 1-23.04-8.96 31.168 31.168 0 0 1-8.96-23.04v-832c0-9.344 3.008-17.024 8.96-23.04A31.168 31.168 0 0 1 160 64z m320 192h192c21.312 0 32 10.688 32 32 0 21.312-10.688 32-32 32h-192c-21.312 0-32-10.688-32-32 0-21.312 10.688-32 32-32z m0 192h192c21.312 0 32 10.688 32 32 0 21.312-10.688 32-32 32h-192c-21.312 0-32-10.688-32-32 0-21.312 10.688-32 32-32z m0 192h192c21.312 0 32 10.688 32 32 0 21.312-10.688 32-32 32h-192c-21.312 0-32-10.688-32-32 0-21.312 10.688-32 32-32z" p-id="3427" fill="#b3b3b6"></path></svg>