<?xml version="1.0" standalone="no"?><!DOCTYPE svg PUBLIC "-//W3C//DTD SVG 1.1//EN" "http://www.w3.org/Graphics/SVG/1.1/DTD/svg11.dtd"><svg t="1772093280643" class="icon" viewBox="0 0 1024 1024" version="1.1" xmlns="http://www.w3.org/2000/svg" p-id="1597" width="24" height="24" xmlns:xlink="http://www.w3.org/1999/xlink"><path d="M497.012364 186.181818a206.041212 206.041212 0 0 1 138.674424 358.462061l0.310303-0.310303c72.610909 37.91903 123.997091 110.281697 154.189576 217.088a56.226909 56.226909 0 0 1-54.116849 71.555879H257.954909a56.226909 56.226909 0 0 1-54.116848-71.555879c30.161455-106.806303 81.578667-179.16897 154.158545-217.05697l-4.282182-4.033939A206.041212 206.041212 0 0 1 497.012364 186.181818z m90.298181 391.323152c-27.275636 13.34303-57.902545 20.790303-90.298181 20.790303-32.364606 0-62.991515-7.447273-90.298182-20.790303l1.179151 0.589575-2.513454 0.465455-26.779152 10.550303c-58.305939 31.402667-100.972606 92.16-127.410424 185.716364a7.043879 7.043879 0 0 0 6.764606 8.936727H736.038788a7.043879 7.043879 0 0 0 6.764606-8.936727c-26.437818-93.525333-69.073455-154.282667-127.379394-185.685334l-27.865212-10.891636a513.737697 513.737697 0 0 0-1.272243-0.248242z m-90.298181-342.109091a156.858182 156.858182 0 1 0 0 313.716363 156.858182 156.858182 0 0 0 0-313.716363z" fill="#707070" p-id="1598"></path></svg>