<?xml version="1.0" standalone="no"?><!DOCTYPE svg PUBLIC "-//W3C//DTD SVG 1.1//EN" "http://www.w3.org/Graphics/SVG/1.1/DTD/svg11.dtd"><svg t="1725935534777" class="icon" viewBox="0 0 1024 1024" version="1.1" xmlns="http://www.w3.org/2000/svg" p-id="2391" width="24" height="24" xmlns:xlink="http://www.w3.org/1999/xlink"><path d="M883.8 925.1H140.2c-24.8 0-44.9-20.1-44.9-44.9V261c0-24.8 20.1-44.9 44.9-44.9H179c8.3 0 15 6.7 15 15s-6.7 15-15 15h-38.7c-8.3 0-15 6.7-15 15v619.2c0 8.3 6.7 15 15 15h743.6c8.3 0 15-6.7 15-15V261c0-8.3-6.7-15-15-15H512c-8.3 0-15-6.7-15-15s6.7-15 15-15h371.8c24.8 0 44.9 20.1 44.9 44.9v619.2c0 24.8-20.1 45-44.9 45z" fill="#515151" p-id="2392"></path><path d="M512 925.1c-8.3 0-15-6.7-15-15v-679c0-8.3 6.7-15 15-15s15 6.7 15 15v679.1c0 8.2-6.7 14.9-15 14.9z" fill="#515151" p-id="2393"></path><path d="M512 925.4c-1.7 0-3.5-0.3-5.2-0.9L202.7 811.6c-19.5-7.3-34.3-30.1-34.3-53.1V135.8c0-13.6 5.4-25.2 14.8-31.7 8.5-5.9 19.4-7 29.8-3.1l304.2 116.2c7.7 2.9 11.6 11.6 8.6 19.3-2.9 7.7-11.6 11.6-19.3 8.6L202.6 128.9c-1.3-0.5-2-0.4-2.2-0.3-0.5 0.4-2 2.4-2 7.2v622.7c0 11.2 7.8 22.4 14.7 25l304.1 112.8c7.8 2.9 11.7 11.5 8.8 19.2-2.2 6.1-7.9 9.9-14 9.9z" fill="#515151" p-id="2394"></path></svg>