<?xml version="1.0" standalone="no"?><!DOCTYPE svg PUBLIC "-//W3C//DTD SVG 1.1//EN" "http://www.w3.org/Graphics/SVG/1.1/DTD/svg11.dtd"><svg t="1768289966964" class="icon" viewBox="0 0 1024 1024" version="1.1" xmlns="http://www.w3.org/2000/svg" p-id="1630" xmlns:xlink="http://www.w3.org/1999/xlink" width="24" height="24"><path d="M721.450667 895.104a25.6 25.6 0 0 1-20.949334-6.997333l-167.552-111.701334-83.797333 83.797334c-6.997333 6.997333-27.946667 13.952-34.901333 6.997333a38.4 38.4 0 0 1-20.949334-34.901333v-153.6a25.6 25.6 0 0 1 6.997334-20.949334L665.6 371.498667a34.56 34.56 0 0 1 48.853333 48.853333l-258.346666 279.253333v55.850667l48.853333-41.898667a32.896 32.896 0 0 1 41.898667-6.997333l153.6 97.749333L819.2 224.853333 232.746667 511.104l132.650666 83.797333a33.706667 33.706667 0 0 1 6.997334 48.853334 43.178667 43.178667 0 0 1-48.853334 13.952l-181.546666-118.698667a36.266667 36.266667 0 0 1-13.952-27.946667c0-13.952 6.997333-20.949333 20.949333-27.946666l698.197333-349.098667a31.146667 31.146667 0 0 1 34.901334 0c13.952 6.997333 13.952 20.949333 13.952 34.901333L756.352 866.986667c0 13.952-6.997333 20.949333-20.949333 27.946666z" fill="#707070" p-id="1631"></path></svg>