<?xml version="1.0" standalone="no"?><!DOCTYPE svg PUBLIC "-//W3C//DTD SVG 1.1//EN" "http://www.w3.org/Graphics/SVG/1.1/DTD/svg11.dtd"><svg t="1738835096323" class="icon" viewBox="0 0 1024 1024" version="1.1" xmlns="http://www.w3.org/2000/svg" p-id="6030" width="20" height="20" xmlns:xlink="http://www.w3.org/1999/xlink"><path d="M772.953825 810.269197 101.280196 810.269197c-20.608364 0-37.314861-16.70752-37.314861-37.316907L63.965336 101.274568c0-20.608364 16.706497-37.314861 37.314861-37.314861l671.673629 0c20.606317 0 37.314861 16.706497 37.314861 37.314861l0 671.677723C810.267663 793.561677 793.559119 810.269197 772.953825 810.269197zM138.594033 735.63743l597.041862 0L735.635895 138.589428 138.594033 138.589428 138.594033 735.63743z" p-id="6031" fill="#707070"></path><path d="M922.211221 959.527616 250.539638 959.527616l0-74.631768 634.356722 0L884.89636 250.535033l74.632791 0 0 671.677723C959.529151 942.822143 942.820608 959.527616 922.211221 959.527616z" p-id="6032" fill="#707070"></path><path d="M500.181325 623.697965c-6.331195 0-12.744255-1.613754-18.621103-5.008061-17.847483-10.3006-23.964808-33.121352-13.660114-50.970882l75.405387-130.61685-75.404364-130.596384c-10.30367-17.847483-4.189416-40.669258 13.657045-50.973952 17.84953-10.308787 40.670282-4.188392 50.973952 13.658068l86.173638 149.253302c6.66684 11.544941 6.668886 25.768897 0.002047 37.313837L532.532127 605.031836C525.62174 617.000426 513.07703 623.694895 500.181325 623.697965z" p-id="6033" fill="#707070"></path></svg>